<?xml version="1.0" encoding="UTF-8"?>
<svg width="256px" height="128px" viewBox="0 0 256 128" version="1.1" xmlns="http://www.w3.org/2000/svg" xmlns:xlink="http://www.w3.org/1999/xlink">
    <!-- Generator: Sketch 48.2 (47327) - http://www.bohemiancoding.com/sketch -->
    <title>Pattern</title>
    <desc>Created with Sketch.</desc>
    <defs></defs>
    <g id="Symbols" stroke="none" stroke-width="1" fill="none" fill-rule="evenodd">
        <g id="Pattern">
            <polygon id="Triangle" fill="#FFFFFF" opacity="0.296931612" transform="translate(32.000000, 32.000000) rotate(33.000000) translate(-32.000000, -32.000000) " points="32 0 64 64 0 64"></polygon>
            <polygon id="Triangle" fill="#FFFFFF" opacity="0.296931612" transform="translate(84.132954, 19.132954) rotate(33.000000) translate(-84.132954, -19.132954) " points="84.1329536 3.13295365 100.132954 35.1329536 68.1329536 35.1329536"></polygon>
            <polygon id="Triangle" fill="#FFFFFF" opacity="0.49292346" transform="translate(146.000000, 40.000000) rotate(110.000000) translate(-146.000000, -40.000000) " points="146 8 178 72 114 72"></polygon>
            <polygon id="Triangle" fill="#4A90E2" opacity="0.0780117754" transform="translate(60.000000, 96.000000) rotate(33.000000) translate(-60.000000, -96.000000) " points="60 64 92 128 28 128"></polygon>
            <polygon id="Triangle-Copy" fill="#4A90E2" opacity="0.296931612" transform="translate(60.265907, -31.734093) rotate(33.000000) translate(-60.265907, 31.734093) " points="60.2659073 -63.7340927 92.2659073 0.265907295 28.2659073 0.265907295"></polygon>
            <polygon id="Triangle" fill="#FFFFFF" opacity="0.221240942" transform="translate(116.000000, 84.000000) rotate(17.000000) translate(-116.000000, -84.000000) " points="116 64 136 104 96 104"></polygon>
            <polygon id="Triangle" fill="#DB82ED" opacity="0.296931612" transform="translate(0.000000, 96.000000) rotate(33.000000) translate(-0.000000, -96.000000) " points="0 64 32 128 -32 128"></polygon>
            <polygon id="Triangle" fill="#FFFFFF" opacity="0.296931612" transform="translate(0.265907, -31.734093) rotate(33.000000) translate(-0.265907, 31.734093) " points="0.265907295 -63.7340927 32.2659073 0.265907295 -31.7340927 0.265907295"></polygon>
            <polygon id="Triangle" fill="#9B9B9B" opacity="0.296931612" transform="translate(224.000000, 32.000000) rotate(33.000000) translate(-224.000000, -32.000000) " points="224 0 256 64 192 64"></polygon>
            <polygon id="Triangle" fill="#FFFFFF" opacity="0.296931612" transform="translate(256.265907, 96.000000) rotate(33.000000) translate(-256.265907, -96.000000) " points="256.265907 64 288.265907 128 224.265907 128"></polygon>
            <polygon id="Triangle" fill="#FFFFFF" opacity="0.296931612" transform="translate(256.265907, -31.734093) rotate(33.000000) translate(-256.265907, 31.734093) " points="256.265907 -63.7340927 288.265907 0.265907295 224.265907 0.265907295"></polygon>
            <circle id="Oval" fill="#CAA2A2" opacity="0.262737772" cx="179.5" cy="108.5" r="25.5"></circle>
            <circle id="Oval" fill="#D8D8D8" opacity="0.262737772" cx="179.5" cy="-19.5" r="25.5"></circle>
            <polygon id="Triangle" fill="#FFFFFF" opacity="0.296931612" transform="translate(288.000000, 32.000000) rotate(33.000000) translate(-288.000000, -32.000000) " points="288 0 320 64 256 64"></polygon>
        </g>
    </g>
</svg>